<?xml version="1.0" encoding="utf-8"?>
<!-- Generator: Adobe Illustrator 16.0.0, SVG Export Plug-In . SVG Version: 6.00 Build 0)  -->
<!DOCTYPE svg PUBLIC "-//W3C//DTD SVG 1.1//EN" "http://www.w3.org/Graphics/SVG/1.1/DTD/svg11.dtd">
<svg version="1.1" id="Layer_1" xmlns="http://www.w3.org/2000/svg" xmlns:xlink="http://www.w3.org/1999/xlink" x="0px" y="0px"
	 width="246.124px" height="36.38px" viewBox="0 0 246.124 36.38" enable-background="new 0 0 246.124 36.38" xml:space="preserve">
<g>
	<g>
		<g display="none">
			<path display="inline" fill="#231F20" d="M31.372,36.136l-8.744-10.492l-4.275,5.44v5.052h-3.4V-0.067h3.4V25.79h0.098
				L30.838,9.564h4.372L24.717,22.973l11.028,13.164H31.372z"/>
		</g>
		<g>
			<g id="XMLID_1_">
				<g>
					<polygon fill="#231F20" points="19.385,9.618 19.385,35.694 17.979,35.694 17.979,16.895 17.879,16.895 3.376,36.216 
						1.519,36.216 11.355,23.218 0.666,9.618 2.522,9.618 12.258,22.114 17.979,14.486 17.979,9.618 					"/>
				</g>
				<g>
				</g>
			</g>
		</g>
		<path d="M31.071,36.172l-9.026-12.483h-0.096v12.483h-6.386v-36.24h6.386v22.124h0.096l8.497-12.531h7.346l-9.602,13.059
			l10.85,13.587H31.071z"/>
	</g>
	<g>
		<rect x="64.567" y="9.929" fill="none" width="26.453" height="26.451"/>
		<g>
			<path fill="#555555" d="M79.924,36.172l-9.025-12.483h-0.096v12.483h-6.385v-36.24h6.385v22.124h0.096l8.498-12.531h7.346
				L77.14,22.585l10.85,13.587H79.924z"/>
			<path fill="#555555" d="M95.563,21.209v14.963h-6.378V9.555h5.851v2.35h0.095c1.133-1.653,3.61-2.366,6.242-2.366l-0.007,6.021
				C97.195,15.704,95.563,17.325,95.563,21.209z"/>
			<path fill="#555555" d="M126.924,25.572h-19.358c0.135,0.674,0.45,1.258,0.81,1.797c1.347,2.065,3.593,3.323,6.063,3.323
				c2.425,0,4.536-0.988,5.75-3.188h6.287c-1.617,5.076-6.737,8.668-12.037,8.668c-7.456,0-13.16-5.794-13.16-13.206
				c0-7.456,5.57-13.384,13.115-13.384c7.276,0,12.891,5.75,12.891,12.98C127.285,23.551,127.149,24.585,126.924,25.572z
				 M114.439,15.062c-3.638,0-6.198,2.156-7.051,5.704h13.788C120.592,17.173,118.077,15.062,114.439,15.062z"/>
			<path fill="#555555" d="M149.942,36.172v-3.896c-1.983,2.342-5.677,3.92-8.741,3.92c-7.525,0-12.166-6.353-12.166-13.473
				c0-7.165,5.137-13.202,12.525-13.202c2.749,0,5.362,1.127,7.39,2.974c0.271,0.271,0.675,0.675,0.901,1.037h0.09V9.583h5.497
				v26.589H149.942z M142.462,15.018c-4.46,0-7.434,3.695-7.434,7.976c0,4.189,3.154,7.705,7.434,7.705c4.461,0,7.3-3.604,7.3-7.885
				C149.762,18.533,146.878,15.018,142.462,15.018z"/>
			<path fill="#555555" d="M167.952,15.195v20.977h-6.385V15.195h-4.393V9.532h4.393v-9.599h6.385v9.599l4.525,0.051v5.621
				L167.952,15.195z"/>
			<path fill="#555555" d="M197.596,25.542h-19.41c0.134,0.676,0.45,1.261,0.811,1.802c1.351,2.071,3.603,3.333,6.08,3.333
				c2.432,0,4.548-0.991,5.764-3.197h6.306c-1.622,5.088-6.756,8.692-12.069,8.692c-7.477,0-13.196-5.81-13.196-13.241
				c0-7.477,5.585-13.421,13.15-13.421c7.296,0,12.925,5.765,12.925,13.016C197.955,23.517,197.821,24.552,197.596,25.542z
				 M185.076,15.004c-3.648,0-6.215,2.162-7.071,5.72h13.827C191.245,17.122,188.724,15.004,185.076,15.004z"/>
			<path fill="#555555" d="M211.489,36.172h-4.998L195.728,9.503h6.92l6.438,17.684h0.145l6.055-17.684h7.015L211.489,36.172z"/>
			<path fill="#555555" d="M245.765,25.494h-19.354c0.135,0.673,0.449,1.258,0.809,1.795c1.347,2.065,3.592,3.323,6.061,3.323
				c2.425,0,4.537-0.987,5.748-3.188h6.287c-1.617,5.075-6.736,8.667-12.035,8.667c-7.453,0-13.155-5.793-13.155-13.201
				c0-7.454,5.567-13.381,13.111-13.381c7.274,0,12.887,5.748,12.887,12.977C246.124,23.473,245.989,24.506,245.765,25.494z
				 M233.281,14.986c-3.636,0-6.195,2.155-7.049,5.703h13.786C239.434,17.098,236.919,14.986,233.281,14.986z"/>
			<g>
			</g>
		</g>
	</g>
</g>
</svg>
